<svg width="40" height="41" viewBox="0 0 40 41" fill="none" xmlns="http://www.w3.org/2000/svg">
<path d="M18.0417 31.6923C15.8604 31.2908 13.9826 30.2824 12.3513 28.6511C10.1763 26.4224 9.12044 23.691 9.12044 20.3021C9.12044 16.9131 10.1763 14.1817 12.3323 11.972C13.9794 10.3249 15.8604 9.31328 18.0417 8.91179V0C13.3629 0.471038 9.28799 2.40894 5.90536 5.7884C1.98532 9.70845 0 14.5895 0 20.3021C0 26.0114 1.98848 30.8957 5.90536 34.8126C9.28483 38.192 13.3598 40.1331 18.0417 40.601V31.6923Z" fill="white"/>
<path d="M39.3934 18.6866L39.0583 16.8088H21.6299V25.5404H30.1402C29.6091 27.1527 28.7302 28.4646 27.4815 29.5205C25.885 30.8704 23.9566 31.6259 21.6299 31.8283V40.68C26.9251 40.4081 31.3225 38.4639 34.7115 34.8853C38.0024 31.5817 39.6716 27.1463 39.6716 21.7057C39.6716 20.7383 39.5799 19.7235 39.3934 18.6866Z" fill="#E3FF04"/>
<path d="M30.7219 0H21.6299V8.89282H30.7219V0Z" fill="#E3FF04"/>
</svg>
